<?xml version="1.0" encoding="UTF-8"?>
<!DOCTYPE svg PUBLIC "-//W3C//DTD SVG 1.1//EN" "http://www.w3.org/Graphics/SVG/1.1/DTD/svg11.dtd">
<svg version="1.2" width="8.43mm" height="8.47mm" viewBox="0 0 843 847" preserveAspectRatio="xMidYMid" fill-rule="evenodd" stroke-width="28.222" stroke-linejoin="round" xmlns="http://www.w3.org/2000/svg" xmlns:ooo="http://xml.openoffice.org/svg/export" xmlns:xlink="http://www.w3.org/1999/xlink" xmlns:presentation="http://sun.com/xmlns/staroffice/presentation" xmlns:smil="http://www.w3.org/2001/SMIL20/" xmlns:anim="urn:oasis:names:tc:opendocument:xmlns:animation:1.0" xmlns:svg="urn:oasis:names:tc:opendocument:xmlns:svg-compatible:1.0" xml:space="preserve">
 <defs class="ClipPathGroup">
  <clipPath id="presentation_clip_path" clipPathUnits="userSpaceOnUse">
   <rect x="0" y="0" width="843" height="847"/>
  </clipPath>
  <clipPath id="presentation_clip_path_shrink" clipPathUnits="userSpaceOnUse">
   <rect x="0" y="0" width="842" height="846"/>
  </clipPath>
 </defs>
 <defs class="TextShapeIndex">
  <g ooo:slide="id1" ooo:id-list="id3 id4 id5 id6"/>
 </defs>
 <defs class="EmbeddedBulletChars">
  <g id="bullet-char-template-57356" transform="scale(0.00048828125,-0.00048828125)">
   <path d="M 580,1141 L 1163,571 580,0 -4,571 580,1141 Z"/>
  </g>
  <g id="bullet-char-template-57354" transform="scale(0.00048828125,-0.00048828125)">
   <path d="M 8,1128 L 1137,1128 1137,0 8,0 8,1128 Z"/>
  </g>
  <g id="bullet-char-template-10146" transform="scale(0.00048828125,-0.00048828125)">
   <path d="M 174,0 L 602,739 174,1481 1456,739 174,0 Z M 1358,739 L 309,1346 659,739 1358,739 Z"/>
  </g>
  <g id="bullet-char-template-10132" transform="scale(0.00048828125,-0.00048828125)">
   <path d="M 2015,739 L 1276,0 717,0 1260,543 174,543 174,936 1260,936 717,1481 1274,1481 2015,739 Z"/>
  </g>
  <g id="bullet-char-template-10007" transform="scale(0.00048828125,-0.00048828125)">
   <path d="M 0,-2 C -7,14 -16,27 -25,37 L 356,567 C 262,823 215,952 215,954 215,979 228,992 255,992 264,992 276,990 289,987 310,991 331,999 354,1012 L 381,999 492,748 772,1049 836,1024 860,1049 C 881,1039 901,1025 922,1006 886,937 835,863 770,784 769,783 710,716 594,584 L 774,223 C 774,196 753,168 711,139 L 727,119 C 717,90 699,76 672,76 641,76 570,178 457,381 L 164,-76 C 142,-110 111,-127 72,-127 30,-127 9,-110 8,-76 1,-67 -2,-52 -2,-32 -2,-23 -1,-13 0,-2 Z"/>
  </g>
  <g id="bullet-char-template-10004" transform="scale(0.00048828125,-0.00048828125)">
   <path d="M 285,-33 C 182,-33 111,30 74,156 52,228 41,333 41,471 41,549 55,616 82,672 116,743 169,778 240,778 293,778 328,747 346,684 L 369,508 C 377,444 397,411 428,410 L 1163,1116 C 1174,1127 1196,1133 1229,1133 1271,1133 1292,1118 1292,1087 L 1292,965 C 1292,929 1282,901 1262,881 L 442,47 C 390,-6 338,-33 285,-33 Z"/>
  </g>
  <g id="bullet-char-template-9679" transform="scale(0.00048828125,-0.00048828125)">
   <path d="M 813,0 C 632,0 489,54 383,161 276,268 223,411 223,592 223,773 276,916 383,1023 489,1130 632,1184 813,1184 992,1184 1136,1130 1245,1023 1353,916 1407,772 1407,592 1407,412 1353,268 1245,161 1136,54 992,0 813,0 Z"/>
  </g>
  <g id="bullet-char-template-8226" transform="scale(0.00048828125,-0.00048828125)">
   <path d="M 346,457 C 273,457 209,483 155,535 101,586 74,649 74,723 74,796 101,859 155,911 209,963 273,989 346,989 419,989 480,963 531,910 582,859 608,796 608,723 608,648 583,586 532,535 482,483 420,457 346,457 Z"/>
  </g>
  <g id="bullet-char-template-8211" transform="scale(0.00048828125,-0.00048828125)">
   <path d="M -4,459 L 1135,459 1135,606 -4,606 -4,459 Z"/>
  </g>
  <g id="bullet-char-template-61548" transform="scale(0.00048828125,-0.00048828125)">
   <path d="M 173,740 C 173,903 231,1043 346,1159 462,1274 601,1332 765,1332 928,1332 1067,1274 1183,1159 1299,1043 1357,903 1357,740 1357,577 1299,437 1183,322 1067,206 928,148 765,148 601,148 462,206 346,322 231,437 173,577 173,740 Z"/>
  </g>
 </defs>
 <g>
  <g id="id2" class="Master_Slide">
   <g id="bg-id2" class="Background"/>
   <g id="bo-id2" class="BackgroundObjects"/>
  </g>
 </g>
 <g class="SlideGroup">
  <g>
   <g id="container-id1">
    <g id="id1" class="Slide" clip-path="url(#presentation_clip_path)">
     <g class="Page">
      <g class="com.sun.star.drawing.CustomShape">
       <g id="id3">
        <rect class="BoundingBox" stroke="none" fill="none" x="85" y="33" width="638" height="639"/>
        <g>
         <defs>
          <linearGradient id="gradient1" x1="186" y1="-24" x2="620" y2="728" gradientUnits="userSpaceOnUse">
           <stop offset="0" style="stop-color:rgb(114,159,207)"/>
           <stop offset="1" style="stop-color:rgb(241,13,12)"/>
          </linearGradient>
         </defs>
         <path style="fill:url(#gradient1)" d="M 403,34 L 721,352 403,670 86,352 403,34 403,34 Z"/>
        </g>
        <path fill="none" stroke="rgb(52,101,164)" d="M 403,34 L 721,352 403,670 86,352 403,34 403,34 Z"/>
       </g>
      </g>
      <g class="com.sun.star.drawing.CustomShape">
       <g id="id4">
        <rect class="BoundingBox" stroke="none" fill="none" x="93" y="204" width="625" height="592"/>
        <path fill="rgb(0,0,0)" stroke="none" d="M 716,499 C 716,551 702,602 674,647 647,692 608,729 561,755 513,780 460,794 405,794 350,794 297,780 250,755 202,729 163,692 136,647 108,602 94,551 94,500 94,448 108,397 136,352 163,307 202,270 249,244 297,219 350,205 405,205 460,205 513,219 560,244 608,270 647,307 674,352 702,397 716,448 716,499 L 716,499 Z"/>
        <path fill="none" stroke="rgb(52,101,164)" d="M 716,499 C 716,551 702,602 674,647 647,692 608,729 561,755 513,780 460,794 405,794 350,794 297,780 250,755 202,729 163,692 136,647 108,602 94,551 94,500 94,448 108,397 136,352 163,307 202,270 249,244 297,219 350,205 405,205 460,205 513,219 560,244 608,270 647,307 674,352 702,397 716,448 716,499 L 716,499 Z"/>
       </g>
      </g>
      <g class="com.sun.star.drawing.CustomShape">
       <g id="id5">
        <rect class="BoundingBox" stroke="none" fill="none" x="84" y="533" width="638" height="304"/>
        <g>
         <defs>
          <linearGradient id="gradient2" x1="258" y1="434" x2="547" y2="935" gradientUnits="userSpaceOnUse">
           <stop offset="0" style="stop-color:rgb(114,159,207)"/>
           <stop offset="1" style="stop-color:rgb(241,13,12)"/>
          </linearGradient>
         </defs>
         <path style="fill:url(#gradient2)" d="M 402,534 L 720,684 402,835 85,684 402,534 402,534 Z"/>
        </g>
        <path fill="none" stroke="rgb(52,101,164)" d="M 402,534 L 720,684 402,835 85,684 402,534 402,534 Z"/>
       </g>
      </g>
      <g class="com.sun.star.drawing.CustomShape">
       <g id="id6">
        <rect class="BoundingBox" stroke="none" fill="none" x="200" y="244" width="478" height="468"/>
        <g style="opacity: 0.498039215686275">
         <g>
          <defs>
           <linearGradient id="gradient3" x1="474" y1="315" x2="474" y2="711" gradientUnits="userSpaceOnUse">
            <stop offset="0" style="stop-color:rgb(128,128,128)"/>
            <stop offset="1" style="stop-color:rgb(128,128,128)"/>
           </linearGradient>
          </defs>
          <path style="fill:url(#gradient3)" d="M 377,711 L 273,711 273,615 292,615 292,410 272,410 272,315 434,315 474,467 515,315 676,315 676,410 655,410 655,615 677,615 677,711 537,711 537,615 558,615 558,395 476,711 435,711 355,399 355,615 377,615 377,711 Z"/>
         </g>
        </g>
        <g>
         <defs>
          <linearGradient id="gradient4" x1="403" y1="244" x2="403" y2="640" gradientUnits="userSpaceOnUse">
           <stop offset="0" style="stop-color:rgb(255,151,47)"/>
           <stop offset="1" style="stop-color:rgb(255,255,255)"/>
          </linearGradient>
         </defs>
         <path style="fill:url(#gradient4)" d="M 306,640 L 202,640 202,544 221,544 221,339 201,339 201,244 363,244 403,396 444,244 605,244 605,339 584,339 584,544 606,544 606,640 466,640 466,544 487,544 487,324 405,640 364,640 284,328 284,544 306,544 306,640 Z"/>
        </g>
       </g>
      </g>
     </g>
    </g>
   </g>
  </g>
 </g>
</svg>